#!OML:ASF X:\für Bonn\!DataBase\2005_08_12_Daniel\c3d\Daniel.ASF
:FULLY-SPECIFIED
:DEGREES
47
root -24.3581 16.933 25.1698 -178.837 78.3287 536.24
lowerback 12.5469 -6.13384 -7.07423
upperback 6.06817 -8.55037 -3.1704
thorax -0.0229425 -4.21078 1.61649
lowerneck 1.09056 7.09006 -5.92184
upperneck 4.11488 9.88813 -7.88964
head 1.23642 4.80786 -1.40294
rclavicle -7.87187e-014 -6.36111e-015
rhumerus -64.3641 4.24353 -96.6132
rradius 41.1032
rwrist -8.35813
rhand -23.8465 29.2166
rfingers 7.12502
rthumb 2.6256 -0.747027
lclavicle -7.87187e-014 -6.36111e-015
lhumerus -40.3967 4.06035 88.9927
lradius 102.146
lwrist 12.5248
lhand -16.717 -10.0616
lfingers 7.12502
lthumb 9.50845 19.7038
rfemur -40.6075 -2.25105 21.587
rtibia 61.998
rfoot -19.6892 2.74715
rtoes -11.2839
lfemur 9.98285 -2.58008 -26.6982
ltibia 25.4221
lfoot -34.6865 3.39632
ltoes -4.19191
48
root -24.2455 16.9306 25.1473 -178.052 78.3586 536.829
lowerback 12.5426 -6.22808 -6.98004
upperback 6.03573 -8.67018 -3.11773
thorax -0.0525714 -4.26997 1.63395
lowerneck 1.13518 7.21687 -5.74682
upperneck 3.82928 10.0336 -8.1126
head 1.16277 4.89412 -1.50616
rclavicle 9.85972e-014 1.59028e-015
rhumerus -65.367 4.57835 -96.7872
rradius 42.5914
rwrist -9.27738
rhand -24.2709 29.5202
rfingers 7.12502
rthumb 2.21572 -0.44805
lclavicle 9.85972e-014 1.59028e-015
lhumerus -40.511 3.46945 88.6538
lradius 102.71
lwrist 12.4136
lhand -16.8695 -10.4463
lfingers 7.12502
lthumb 9.36127 19.3258
rfemur -40.8857 -1.91095 21.4636
rtibia 61.738
rfoot -19.6657 2.11879
rtoes -10.1483
lfemur 10.2034 -2.58498 -26.5479
ltibia 25.2482
lfoot -34.4118 3.32834
ltoes -4.29408
49
root -24.1299 16.9257 25.1241 -177.27 78.3869 537.444
lowerback 12.5641 -6.29894 -6.92114
upperback 6.0072 -8.76434 -3.00289
thorax -0.0782361 -4.31867 1.73364
lowerneck 1.13248 7.32224 -5.66015
upperneck 3.57311 10.1585 -8.33468
head 1.10217 4.96737 -1.59327
rclavicle 3.89618e-014 -5.08889e-014
rhumerus -66.3188 4.92484 -96.8292
rradius 44.1144
rwrist -10.1366
rhand -24.7273 29.545
rfingers 7.12502
rthumb 1.77493 -0.427407
lclavicle 3.89618e-014 -5.08889e-014
lhumerus -40.6134 2.92571 88.4391
lradius 103.17
lwrist 12.2458
lhand -17.0563 -10.796
lfingers 7.12502
lthumb 9.18102 18.9842
rfemur -41.1089 -1.54956 21.3042
rtibia 61.4888
rfoot -19.7113 1.55555
rtoes -8.89447
lfemur 10.4865 -2.62559 -26.4159
ltibia 25.0682
lfoot -34.1177 3.29262
ltoes -4.60233
50
root -24.0085 16.9224 25.0997 -176.28 78.4023 538.246
lowerback 12.5335 -6.35758 -6.78036
upperback 5.9817 -8.82986 -2.89779
thorax -0.0897138 -4.35229 1.77121
lowerneck 1.13062 7.42278 -5.54406
upperneck 3.30186 10.2726 -8.52489
head 1.03642 5.03656 -1.67578
rclavicle 5.00937e-014 6.36111e-014
rhumerus -67.2057 5.21253 -96.8888
rradius 45.6572
rwrist -11.1231
rhand -25.2569 29.4604
rfingers 7.12502
rthumb 1.26343 -0.515596
lclavicle 5.00937e-014 6.36111e-014
lhumerus -40.7518 2.31311 88.2376
lradius 103.587
lwrist 11.9847
lhand -17.205 -11.021
lfingers 7.12502
lthumb 9.03757 18.7654
rfemur -41.3045 -1.21632 21.1725
rtibia 61.2269
rfoot -19.8235 0.976892
rtoes -7.94957
lfemur 10.7376 -2.62244 -26.213
ltibia 24.9014
lfoot -33.8312 3.17164
ltoes -4.73962
51
root -23.8835 16.9177 25.0755 -175.496 78.4205 538.825
lowerback 12.4586 -6.40374 -6.71006
upperback 5.97339 -8.88047 -2.79258
thorax -0.0488322 -4.38142 1.83742
lowerneck 1.11727 7.52441 -5.40562
upperneck 3.00319 10.3866 -8.72927
head 0.966399 5.1069 -1.76674
rclavicle -7.39479e-014 3.02153e-014
rhumerus -67.691 5.32285 -96.7779
rradius 46.8308
rwrist -11.9376
rhand -25.8155 29.2434
rfingers 7.12502
rthumb 0.723915 -0.735161
lclavicle -7.39479e-014 3.02153e-014
lhumerus -40.8454 1.70428 88.0994
lradius 103.937
lwrist 11.7322
lhand -17.3606 -11.224
lfingers 7.12502
lthumb 8.88736 18.5688
rfemur -41.4911 -0.832138 20.983
rtibia 60.9786
rfoot -19.904 0.32752
rtoes -7.33732
lfemur 10.9845 -2.58114 -26.0351
ltibia 24.7151
lfoot -33.4275 3.03609
ltoes -4.77065
52
root -23.7549 16.9121 25.0513 -174.788 78.4627 539.305
lowerback 12.3757 -6.44384 -6.63613
upperback 5.92777 -8.92692 -2.70571
thorax -0.0470428 -4.40684 1.88471
lowerneck 1.08661 7.62202 -5.24938
upperneck 2.77752 10.5035 -8.91577
head 0.922723 5.17509 -1.85298
rclavicle 3.65764e-014 -3.18055e-015
rhumerus -68.0994 5.42924 -96.6621
rradius 47.9206
rwrist -12.7108
rhand -26.3992 28.9704
rfingers 7.12502
rthumb 0.160184 -1.00933
lclavicle 3.65764e-014 -3.18055e-015
lhumerus -41.0106 1.15665 87.9224
lradius 104.251
lwrist 11.4179
lhand -17.3159 -11.3508
lfingers 7.12502
lthumb 8.93055 18.4401
rfemur -41.6769 -0.448389 20.7528
rtibia 60.7516
rfoot -19.9414 -0.33996
rtoes -6.72454
lfemur 11.1952 -2.36771 -25.8192
ltibia 24.536
lfoot -32.9957 2.77225
ltoes -5.02991
53
root -23.6191 16.9102 25.0225 -173.797 78.4845 540.11
lowerback 12.2829 -6.47444 -6.48367
upperback 5.90083 -8.95056 -2.58338
thorax -0.0289218 -4.42115 1.92184
lowerneck 1.14052 7.72419 -5.09953
upperneck 2.48367 10.6128 -9.12158
head 0.844468 5.24535 -1.94997
rclavicle 4.45278e-014 -6.36111e-015
rhumerus -68.4308 5.49064 -96.428
rradius 48.978
rwrist -13.4305
rhand -26.886 28.7112
rfingers 7.12502
rthumb -0.309939 -1.26836
lclavicle 4.45278e-014 -6.36111e-015
lhumerus -41.2318 0.616411 87.8239
lradius 104.552
lwrist 11.1879
lhand -17.3146 -11.402
lfingers 7.12502
lthumb 8.93178 18.3889
rfemur -41.7455 -0.0607322 20.5821
rtibia 60.5338
rfoot -19.9743 -1.0435
rtoes -6.45135
lfemur 11.4664 -2.1817 -25.5467
ltibia 24.3521
lfoot -32.5408 2.47707
ltoes -5.15362
54
root -23.4797 16.9082 24.9941 -173.028 78.5056 540.642
lowerback 12.1249 -6.4868 -6.37698
upperback 5.88599 -8.94869 -2.49635
thorax 0.0367889 -4.42415 1.93551
lowerneck 1.05256 7.82422 -4.88401
upperneck 2.31046 10.7407 -9.26734
head 0.828714 5.31515 -2.02962
rclavicle 9.85972e-014 2.38542e-014
rhumerus -68.6482 5.37292 -96.1351
rradius 50.0298
rwrist -13.9833
rhand -27.3953 28.4265
rfingers 7.12502
rthumb -0.801917 -1.55178
lclavicle 9.85972e-014 2.38542e-014
lhumerus -41.4377 0.104493 87.7498
lradius 104.776
lwrist 10.8623
lhand -17.1705 -11.4788
lfingers 7.12502
lthumb 9.07086 18.3061
rfemur -41.8324 0.307305 20.3504
rtibia 60.3434
rfoot -19.9643 -1.71153
rtoes -6.36233
lfemur 11.7027 -2.03226 -25.348
ltibia 24.1607
lfoot -32.0209 2.2327
ltoes -5.10231
